Coordinates
version=1
nRows=29
nColumns=24
inDegrees=yes

Units are S.I. units (second, meters, Newtons, ...)
Angles are in degrees.

endheader
time	pelvis_tilt	pelvis_list	pelvis_rotation	pelvis_tx	pelvis_ty	pelvis_tz	hip_flexion_r	hip_adduction_r	hip_rotation_r	knee_angle_r	ankle_angle_r	subtalar_angle_r	mtp_angle_r	hip_flexion_l	hip_adduction_l	hip_rotation_l	knee_angle_l	ankle_angle_l	subtalar_angle_l	mtp_angle_l	lumbar_extension	lumbar_bending	lumbar_rotation
      1.81683333	      0.85535838	      4.17489126	     -3.96775435	      1.36319330	      1.02084567	      0.28082867	     13.44216222	     -2.89880242	      1.46810904	    -61.23234683	      4.95665814	    -18.41646345	      0.36744367	      6.40739534	      8.45635557	      1.94594200	    -12.25590221	      2.41417865	    -17.36035936	      7.20236419	     -0.58161277	     -5.33673110	      5.01845357
      1.82100000	      0.83602526	      4.07622645	     -3.75183188	      1.36766954	      1.02139331	      0.28057699	     13.93431634	     -2.77739818	      1.27100649	    -60.75512133	      5.10769587	    -18.40950898	      0.34799885	      5.98546405	      8.38106469	      2.17650181	    -11.96711560	      2.49426068	    -17.27366034	      7.19228122	     -0.60773186	     -5.22771796	      4.95011248
      1.82516667	      0.82798292	      3.97703447	     -3.52538624	      1.37212727	      1.02192004	      0.28030684	     14.40442689	     -2.66457453	      1.06144523	    -60.25188477	      5.24628224	    -18.39727197	      0.32294557	      5.54511200	      8.30685151	      2.44396319	    -11.66374845	      2.56173835	    -17.23382465	      7.17789815	     -0.65450884	     -5.11758547	      4.79085472
      1.82933333	      0.82589250	      3.90086102	     -3.31313808	      1.37657734	      1.02241757	      0.28005639	     14.86761045	     -2.57668537	      0.87468021	    -59.73475255	      5.37814963	    -18.38499976	      0.24603342	      5.08060153	      8.26193462	      2.78019090	    -11.31100840	      2.56690584	    -17.36632260	      7.13140807	     -0.69772722	     -5.04460037	      4.42794014
      1.83350000	      0.80136220	      3.80731283	     -3.09361554	      1.38102663	      1.02286594	      0.27980713	     15.34246765	     -2.47550744	      0.67358194	    -59.18187548	      5.50920585	    -18.35615355	      0.22564203	      4.66832583	      8.18136370	      3.01271363	    -11.02072791	      2.64001728	    -17.27661505	      7.12166870	     -0.72141558	     -4.93362607	      4.36575194
      1.83766667	      0.78866050	      3.72694141	     -2.87282339	      1.38547660	      1.02330583	      0.27955678	     15.79455211	     -2.39359908	      0.47456203	    -58.60437548	      5.62319066	    -18.33166052	      0.15062686	      4.22195672	      8.12290492	      3.34020127	    -10.68700985	      2.65728298	    -17.38135044	      7.07340059	     -0.75403903	     -4.85528764	      4.05356954
      1.84183333	      0.75174624	      3.63885637	     -2.65363607	      1.38990331	      1.02367794	      0.27932421	     16.26940203	     -2.30347597	      0.27941233	    -58.00748248	      5.73397253	    -18.29454482	      0.13258098	      3.83057062	      8.03983891	      3.56324301	    -10.40642609	      2.73046803	    -17.28715963	      7.06430035	     -0.76553361	     -4.74484723	      3.99122216
      1.84600000	      0.75428126	      3.55733782	     -2.42375640	      1.39429628	      1.02407108	      0.27907625	     16.69143816	     -2.22912231	      0.07816509	    -57.38378499	      5.84341756	    -18.25590900	      0.06332599	      3.38227466	      7.97140390	      3.87725114	    -10.08875656	      2.75379629	    -17.38121468	      7.02448854	     -0.82092764	     -4.67404186	      3.66365128
      1.85016667	      0.70979328	      3.47588236	     -2.19364961	      1.39873810	      1.02436501	      0.27884438	     17.15130285	     -2.15733734	     -0.12513240	    -56.73872799	      5.94457323	    -18.20400717	      0.03854192	      3.00523142	      7.89047803	      4.11977832	     -9.82067453	      2.82591932	    -17.32626568	      7.01191595	     -0.80707245	     -4.58272196	      3.57989400
      1.85433333	      0.69872736	      3.40761909	     -1.96740817	      1.40313520	      1.02467287	      0.27860769	     17.57175519	     -2.10628764	     -0.32143548	    -56.07804529	      6.03046814	    -18.15345080	     -0.01412956	      2.57000576	      7.82800273	      4.43146042	     -9.49392907	      2.86588644	    -17.40028096	      6.98024999	     -0.85299617	     -4.50553318	      3.28001802
      1.85850000	      0.66679466	      3.33142619	     -1.73186229	      1.40752227	      1.02492689	      0.27837823	     18.00075403	     -2.04681293	     -0.51852752	    -55.38635341	      6.11546567	    -18.10705088	     -0.07159050	      2.17763907	      7.75096822	      4.73275648	     -9.21224160	      2.88666992	    -17.43484083	      6.94467978	     -0.87083321	     -4.42913432	      3.08698719
      1.86266667	      0.63280368	      3.25273868	     -1.50956907	      1.41192948	      1.02515622	      0.27817596	     18.42191062	     -1.98815290	     -0.71148198	    -54.67204944	      6.18575343	    -18.05078279	     -0.09324660	      1.79865532	      7.66047087	      4.93927958	     -8.95067264	      2.94555889	    -17.36372427	      6.93329410	     -0.87283326	     -4.34114339	      3.00454842
      1.86683333	      0.60122396	      3.18144537	     -1.27443041	      1.41632564	      1.02535412	      0.27796239	     18.83011645	     -1.94424690	     -0.90997698	    -53.93679547	      6.25227737	    -17.98851443	     -0.11638206	      1.41080325	      7.57797895	      5.19660409	     -8.67556283	      2.99743714	    -17.34016196	      6.92108559	     -0.88622576	     -4.26496479	      2.83963130
      1.87100000	      0.59664903	      3.12777789	     -1.05056273	      1.42069457	      1.02555495	      0.27776621	     19.20814847	     -1.91973039	     -1.08979890	    -53.19599713	      6.28404205	    -17.95150790	     -0.16208110	      0.97855102	      7.51732302	      5.52135079	     -8.36606347	      3.03130137	    -17.44650986	      6.88963342	     -0.93512045	     -4.20772036	      2.52112899
      1.87516667	      0.54364748	      3.07402804	     -0.83947189	      1.42509599	      1.02564735	      0.27761089	     19.62919033	     -1.89280489	     -1.25781598	    -52.43416248	      6.33382251	    -17.87857248	     -0.20070764	      0.60845699	      7.44557938	      5.76792685	     -8.07427143	      3.06729947	    -17.45852544	      6.86254115	     -0.92315148	     -4.15132388	      2.38111463
      1.87933333	      0.54373884	      3.00948613	     -0.62072228	      1.42949765	      1.02580912	      0.27744975	     19.97210819	     -1.86058527	     -1.43395096	    -51.63528941	      6.36537209	    -17.81745325	     -0.23476775	      0.18122417	      7.35897272	      6.01986678	     -7.78157156	      3.10753822	    -17.45221492	      6.83872249	     -0.97327805	     -4.08409117	      2.20386462
      1.88350000	      0.49606662	      2.96930530	     -0.38990623	      1.43388695	      1.02585025	      0.27729105	     20.36596874	     -1.86214100	     -1.61828970	    -50.83822737	      6.39694165	    -17.74996618	     -0.27608111	     -0.18610008	      7.29526118	      6.28856562	     -7.50545651	      3.12288237	    -17.47524796	      6.80610501	     -0.96912213	     -4.05057261	      2.02021203
      1.88766667	      0.47225301	      2.91621348	     -0.18525666	      1.43828484	      1.02590951	      0.27717864	     20.72186253	     -1.84215670	     -1.77604436	    -50.01077581	      6.40683910	    -17.67264545	     -0.28933918	     -0.57190766	      7.21094513	      6.48346041	     -7.24324202	      3.19389070	    -17.40349459	      6.79711746	     -0.98120463	     -3.99308681	      1.94996631
      1.89183333	      0.46194819	      2.87000881	      0.02199157	      1.44269187	      1.02594803	      0.27706001	     21.05102656	     -1.83547167	     -1.93657792	    -49.16669313	      6.40649109	    -17.60691694	     -0.31246543	     -0.98773222	      7.13391629	      6.73082649	     -6.94962438	      3.26140362	    -17.42633276	      6.77895441	     -1.02177797	     -3.94501304	      1.74158108
      1.89600000	      0.44486045	      2.82988873	      0.22442344	      1.44707694	      1.02594924	      0.27697738	     21.38093409	     -1.83273782	     -2.08493344	    -48.30706706	      6.39804442	    -17.53248069	     -0.33009773	     -1.39059770	      7.05699050	      6.95920374	     -6.66470935	      3.31212871	    -17.40412329	      6.75898272	     -1.05222413	     -3.90794914	      1.59942343
      1.90016667	      0.39476634	      2.81136281	      0.40621607	      1.45151343	      1.02586068	      0.27692221	     21.74531265	     -1.85449079	     -2.22078080	    -47.45007491	      6.39913809	    -17.43823258	     -0.33458110	     -1.75914222	      6.99888661	      7.12283641	     -6.37657555	      3.36897228	    -17.29734187	      6.75502971	     -1.03980147	     -3.89290611	      1.55615206
      1.90433333	      0.40937959	      2.77242003	      0.62825665	      1.45593397	      1.02587138	      0.27682410	     22.00300810	     -1.86707317	     -2.39156494	    -46.53667654	      6.37422892	    -17.36542738	     -0.34738870	     -2.19702110	      6.91773861	      7.38356404	     -6.09094200	      3.39992788	    -17.34833693	      6.72767928	     -1.10232489	     -3.86085936	      1.30371091
      1.90850000	      0.37059647	      2.73909779	      0.81178184	      1.46034682	      1.02574421	      0.27678717	     22.32563930	     -1.87422254	     -2.52257080	    -45.62494587	      6.35513657	    -17.25131829	     -0.35008994	     -2.56095768	      6.83902885	      7.54491218	     -5.83834266	      3.49033934	    -17.27261816	      6.72144865	     -1.09850234	     -3.82593178	      1.26786333
      1.91266667	      0.36812984	      2.71557994	      1.00525400	      1.46478076	      1.02565190	      0.27675315	     22.59278958	     -1.89544852	     -2.65785291	    -44.69304888	      6.31651175	    -17.16371400	     -0.35081888	     -2.97976306	      6.76738174	      7.76343848	     -5.55323098	      3.57777281	    -17.25459695	      6.70762108	     -1.14808458	     -3.80666087	      1.09481082
      1.91683333	      0.34855639	      2.68791639	      1.19994813	      1.46923372	      1.02550824	      0.27671892	     22.86383648	     -1.91793294	     -2.80081169	    -43.74515030	      6.28820189	    -17.04837729	     -0.34849315	     -3.36533393	      6.68709330	      7.92521846	     -5.29626539	      3.64564927	    -17.16848441	      6.70112187	     -1.16517019	     -3.77976405	      1.03753504
      1.92100000	      0.36574899	      2.68084304	      1.37543367	      1.47367642	      1.02537432	      0.27672658	     23.09194162	     -1.95599793	     -2.92119151	    -42.78823304	      6.25482108	    -16.94481819	     -0.33681776	     -3.81097112	      6.62688571	      8.11884940	     -5.00210747	      3.72701381	    -17.14885260	      6.68399226	     -1.23336279	     -3.78125888	      0.86859544
      1.92516667	      0.36389678	      2.65794238	      1.54721715	      1.47817088	      1.02519573	      0.27674667	     23.32146056	     -1.97500429	     -3.03503293	    -41.79946599	      6.21170945	    -16.82315552	     -0.32108319	     -4.22969815	      6.54672417	      8.28652229	     -4.72299947	      3.81736399	    -17.09307575	      6.66879281	     -1.27794525	     -3.75908095	      0.78819909
      1.92933333	      0.31985122	      2.64388929	      1.73439330	      1.48263970	      1.02492039	      0.27675026	     23.58710261	     -2.01515216	     -3.16605919	    -40.80431172	      6.17372389	    -16.67858454	     -0.31004061	     -4.58866293	      6.47358538	      8.42780127	     -4.46393013	      3.89555204	    -16.99957321	      6.66398769	     -1.26262302	     -3.74789566	      0.74075559
      1.93350000	      0.31702214	      2.62718531	      1.90726407	      1.48713943	      1.02469192	      0.27678162	     23.78856050	     -2.04515310	     -3.27742380	    -39.77719379	      6.13134349	    -16.53439982	     -0.29186481	     -4.99668132	      6.39573835	      8.58100501	     -4.20898014	      3.99820522	    -16.92893214	      6.65613826	     -1.30017207	     -3.73078140	      0.64589929
